<?xml version="1.0" encoding="UTF-8"?>
<svg width="1109px" height="382px" viewBox="0 0 1109 382" version="1.1" xmlns="http://www.w3.org/2000/svg" xmlns:xlink="http://www.w3.org/1999/xlink">
    <!-- Generator: Sketch 53.2 (72643) - https://sketchapp.com -->
    <title>Group 6</title>
    <desc>Created with Sketch.</desc>
    <g id="Page-1" stroke="none" stroke-width="1" fill="none" fill-rule="evenodd">
        <g id="Artboard" transform="translate(-78.000000, -83.000000)">
            <g id="Group-6" transform="translate(78.000000, 83.000000)">
                <path d="M867.702,210.9523 C850.996,239.8622 825.288,262.2698 810.283,260.9694 C795.277,259.669 796.678,235.1606 813.384,206.2507 C830.089,177.3409 855.798,154.9333 870.803,156.2337 C885.808,157.5342 884.408,182.0425 867.702,210.9523 M684.54,210.9523 C667.834,239.8622 642.125,262.2698 627.12,260.9694 C612.115,259.669 613.516,235.1606 630.221,206.2507 C646.927,177.3409 672.636,154.9333 687.641,156.2337 C702.646,157.5342 701.245,182.0425 684.54,210.9523 M339.7222,210.9523 C323.0165,239.8622 297.3078,262.2698 282.3027,260.9694 C267.2975,259.669 268.698,235.1606 285.4037,206.2507 C302.1094,177.3409 327.8182,154.9333 342.8233,156.2337 C357.8284,157.5342 356.4279,182.0425 339.7222,210.9523 M59.927,268.9721 C36.8191,268.9721 23.0144,253.5668 23.0144,239.262 C23.0144,224.3569 35.5186,208.4515 58.0263,208.4515 C78.4333,209.2518 89.7371,224.9571 102.9416,243.3634 C97.4398,249.1654 82.0345,268.9721 59.927,268.9721 M1076.373,230.359 C1075.373,227.658 1072.972,226.4576 1070.871,227.658 C1070.871,227.658 1067.47,229.7587 1065.67,230.6591 C1046.663,241.4627 1024.556,251.7662 1007.05,256.5679 C1027.156,239.162 1035.859,216.1541 1034.959,191.6458 C1033.859,180.2419 1033.159,163.7363 1038.861,151.032 C1043.462,140.8285 1041.561,136.0269 1036.16,136.0269 C1029.157,136.0269 1026.456,141.0286 1021.555,146.7305 C991.544,185.5437 968.537,191.4458 952.531,189.4451 C935.125,187.8446 922.521,178.4413 913.418,168.2378 C904.915,152.8326 887.409,143.0292 861.4,142.329 C820.186,142.1289 779.472,163.8363 765.067,207.7513 C763.067,213.2532 761.966,218.655 761.566,223.9568 C737.658,244.864 726.454,253.0667 715.75,256.5679 L776.571,148.8312 L723.653,149.0313 L716.851,160.4352 C711.349,152.8326 699.245,142.329 673.836,141.6288 C636.023,140.6285 600.611,160.7353 582.605,196.9476 C576.703,208.8517 575.003,220.8558 576.603,231.7595 C551.194,260.5693 539.891,263.6704 535.289,263.6704 C528.587,263.6704 526.8861,255.7677 532.988,244.4638 C536.489,237.9616 559.697,201.7493 570.601,184.7435 C583.805,164.2365 568.7,144.6298 545.592,144.6298 C526.9861,144.6298 505.4788,156.5339 488.9731,169.9384 L501.3774,148.8313 L447.0589,148.7313 L422.7506,189.3451 C419.1494,193.7466 416.6486,194.6469 409.5461,193.0463 C401.7435,190.4455 394.3409,183.243 389.3392,173.5397 C382.1368,154.9334 363.7305,143.0293 334.6206,142.229 C293.5066,142.029 252.7927,163.7364 238.2878,207.6514 C230.8852,228.6585 235.5869,247.665 248.6914,259.7691 C234.9867,274.0739 217.9809,275.6745 197.3739,264.4707 C183.9693,257.8685 167.5637,246.7647 154.4592,233.3601 C174.6661,216.9545 192.8724,200.0488 208.9778,170.3387 C234.0863,124.1229 273.0996,40.6945 292.3062,40.6945 C302.4096,40.6945 306.8111,54.4992 303.61,72.2052 C303.61,72.2052 303.51,73.3056 303.61,73.9058 C304.3103,76.4067 308.4116,77.5071 312.7131,76.3066 C316.5144,75.2063 318.8152,73.1055 319.2153,70.4046 C324.217,40.2944 310.5123,17.0865 282.1027,17.0865 C255.8938,17.0865 228.5845,32.9919 213.0792,59.4009 C177.367,120.2216 150.6579,183.4431 129.8508,211.3526 C113.9454,193.7467 86.6361,184.6435 67.6296,184.6435 C25.2152,184.6435 1.107,213.8535 0.7068,240.5626 C0.3066,266.5714 24.1148,284.5776 60.1271,283.2772 C92.238,282.1768 117.4466,261.3697 117.4466,261.3697 C137.3534,284.3775 165.1628,292.9804 187.5704,296.7818 C203.2758,299.1826 216.6803,296.9818 228.1842,291.0798 C240.9886,284.8777 251.8923,276.3748 259.2948,267.8719 C267.5976,272.6735 278.3013,275.2744 289.8052,275.2744 C335.0206,275.8746 375.8345,247.2649 388.4388,210.1523 C389.239,206.1509 390.6395,202.3496 390.6395,198.5483 C395.7413,202.6497 401.5433,207.4514 411.9468,208.3517 L376.3347,272.0734 L429.3527,272.0734 L452.8607,231.7597 C473.4677,200.7491 496.7757,176.941 515.182,165.237 C529.587,156.0339 528.587,164.0366 522.0844,174.3401 C516.8827,182.5429 488.773,227.8583 486.0721,235.0608 C477.3692,258.7689 497.0759,275.5746 522.2844,275.5746 C540.391,278.4756 564.799,266.3714 582.105,248.8655 C590.008,263.2704 604.613,273.4738 622.819,274.8743 C632.822,275.5746 642.625,274.7743 651.829,272.7736 C639.024,295.2813 593.409,369.5066 548.093,369.5066 C530.887,369.5066 515.6822,355.3017 515.6822,336.5954 C516.1824,317.5889 530.087,303.284 547.093,303.7842 L554.695,303.7842 C558.797,303.7842 560.397,301.3834 561.598,298.6825 C563.198,294.9812 561.098,292.1803 557.897,292.1803 L547.093,291.9802 C504.3784,291.1799 470.1667,304.5845 469.7666,335.6951 C468.7663,367.4059 503.1779,381.6108 545.793,381.6108 C637.324,381.6108 706.647,272.9738 706.647,272.9738 C727.254,268.7723 744.56,258.0687 764.067,242.9636 L764.067,242.6635 C767.068,250.166 772.37,257.2684 780.573,263.9707 C787.975,269.9728 797.778,274.9745 816.385,275.4746 C861.3,276.675 912.017,245.6645 918.42,192.8465 C927.623,197.048 942.728,201.8496 950.531,202.4498 C970.737,204.1503 981.741,199.7488 987.443,197.0479 C989.744,220.756 985.342,240.2626 975.039,253.9673 C970.837,260.5695 964.635,262.3702 958.533,261.3698 C950.731,260.0694 944.128,255.2678 943.528,250.166 C959.133,248.6655 965.936,238.7621 966.936,230.2592 C967.636,223.4569 962.735,208.5518 946.029,208.5518 C934.525,208.5518 918.219,215.054 918.219,238.7621 C918.219,253.6672 931.524,279.576 976.639,274.6744 C1010.851,270.9731 1021.255,264.4709 1061.968,244.8642 C1066.37,242.7635 1070.271,240.0626 1074.173,237.5618 L1074.173,237.5618 C1076.473,236.261 1077.374,233.0599 1076.373,230.359" id="Fill-1" fill="#EE2722"></path>
                <path d="M969.037,127.2238 C981.041,128.6243 994.245,126.8237 1009.951,119.1211 C1063.269,92.9121 1061.768,39.494 1090.178,0.8808 C1078.174,-0.4196 1064.969,1.381 1049.264,9.0836 C996.046,35.1925 997.446,88.7107 969.037,127.2238" id="Fill-3" fill="#B9D110"></path>
                <path d="M958.933,154.7332 C950.53,154.7332 941.427,152.4325 931.024,145.8302 C895.612,123.5226 899.813,86.41 882.507,57.3 C890.91,57.3 900.013,59.6008 910.417,66.2031 C945.829,88.6107 941.527,125.7233 958.933,154.7332" id="Fill-4" fill="#60BA52"></path>
                <path d="M1091.578,252.1664 L1093.079,252.1664 C1094.879,252.1664 1096.38,251.5662 1096.38,250.0657 C1096.38,248.7653 1095.48,247.965 1093.379,247.965 C1092.479,247.965 1091.878,248.065 1091.578,248.1651 L1091.578,252.1664 Z M1091.478,260.0691 L1088.177,260.0691 L1088.177,246.0643 C1089.478,245.7643 1091.278,245.6642 1093.579,245.6642 C1096.28,245.6642 1097.48,246.0643 1098.481,246.6645 C1099.281,247.2647 1099.881,248.3651 1099.881,249.7656 C1099.881,251.2661 1098.681,252.4665 1096.98,253.0667 L1096.98,253.2667 C1098.381,253.7669 1099.081,254.7673 1099.581,256.6679 C1099.981,258.7686 1100.281,259.669 1100.581,260.1691 L1097.08,260.1691 C1096.68,259.669 1096.38,258.3685 1095.98,256.7679 C1095.68,255.2674 1094.879,254.5672 1093.079,254.5672 L1091.578,254.5672 L1091.478,260.0691 Z M1082.775,252.7666 C1082.775,259.0688 1087.377,263.9705 1093.779,263.9705 C1099.981,263.9705 1104.483,258.9688 1104.483,252.7666 C1104.483,246.4645 1099.981,241.4628 1093.679,241.4628 C1087.477,241.5628 1082.775,246.5645 1082.775,252.7666 L1082.775,252.7666 Z M1108.084,252.7666 C1108.084,260.7694 1101.782,266.9715 1093.679,266.9715 C1085.576,266.9715 1079.174,260.6694 1079.174,252.7666 C1079.174,244.964 1085.576,238.6619 1093.679,238.6619 C1101.882,238.6618 1108.084,244.9639 1108.084,252.7666 L1108.084,252.7666 Z" id="Fill-5" fill="#EE2722"></path>
            </g>
        </g>
    </g>
</svg>